<?xml version="1.0" standalone="no"?><!DOCTYPE svg PUBLIC "-//W3C//DTD SVG 1.1//EN" "http://www.w3.org/Graphics/SVG/1.1/DTD/svg11.dtd"><svg t="1623077355377" class="icon" viewBox="0 0 1024 1024" version="1.1" xmlns="http://www.w3.org/2000/svg" p-id="5663" xmlns:xlink="http://www.w3.org/1999/xlink" fill="#000000" width="100" height="100"><defs><style type="text/css"></style></defs><path d="M387.7 295.265c-15.182 0-27.49-12.308-27.49-27.49v-33.859c0-15.182 12.308-27.49 27.49-27.49s27.49 12.308 27.49 27.49v33.859c0 15.182-12.307 27.49-27.49 27.49z m248.555 0c-15.183 0-27.49-12.308-27.49-27.49v-33.859c0-15.182 12.307-27.49 27.49-27.49s27.49 12.308 27.49 27.49v33.859c0 15.182-12.308 27.49-27.49 27.49zM511.989 428.279a57.9 57.9 0 0 1-12.285-1.323c-22.1-4.797-39.479-22.176-44.276-44.274-2.415-11.128 4.647-22.107 15.775-24.523 11.129-2.415 22.107 4.647 24.522 15.775a16.67 16.67 0 0 0 12.726 12.726c8.96 1.942 17.835-3.765 19.781-12.727 2.415-11.128 13.388-18.188 24.522-15.774 11.128 2.416 18.19 13.395 15.774 24.523-5.876 27.06-29.91 45.597-56.54 45.597zM130.509 737.074c-15.77 0-31.088-4.047-44.333-11.862-18.856-11.128-31.24-28.406-34.87-48.654-5.996-33.453 17.404-65.172 64.202-87.025 27.902-13.028 142.958-46.103 155.986-49.832 10.947-3.13 22.361 3.202 25.495 14.149 3.133 10.948-3.201 22.36-14.15 25.496-34.529 9.882-128.769 37.69-149.885 47.55-21.705 10.136-43.89 26.595-41.06 42.387 1.477 8.237 6.888 15.488 15.238 20.417 9.324 5.502 20.872 7.39 32.528 5.327l103.966-20.007c11.183-2.145 21.99 5.168 24.142 16.35 2.151 11.181-5.168 21.99-16.35 24.141l-104.106 20.034a9.22 9.22 0 0 1-0.257 0.047 93.617 93.617 0 0 1-16.546 1.482z m762.994 0a93.649 93.649 0 0 1-16.549-1.481 9.894 9.894 0 0 1-0.254-0.047l-104.163-20.033c-11.182-2.15-18.503-12.959-16.352-24.14 2.15-11.182 12.962-18.509 24.14-16.352l104.028 20.007c11.653 2.067 23.202 0.173 32.526-5.327 8.35-4.928 13.762-12.18 15.239-20.418 2.797-15.776-19.405-32.246-41.117-42.385-21.117-9.86-115.356-37.668-149.886-47.551-10.946-3.134-17.28-14.548-14.148-25.496 3.132-10.947 14.547-17.28 25.495-14.15 13.026 3.73 128.084 36.805 155.986 49.833 46.77 21.84 70.195 53.545 64.265 86.985-3.636 20.286-16.02 37.565-34.875 48.693-13.246 7.815-28.567 11.862-44.335 11.862z" p-id="5664"></path><path d="M294.349 1024c-68.21 0-123.705-55.493-123.705-123.705s55.494-123.704 123.705-123.704 123.705 55.493 123.705 123.704S362.56 1024 294.349 1024z m0-206.174c-45.474 0-82.47 36.995-82.47 82.47s36.996 82.47 82.47 82.47 82.47-36.997 82.47-82.47-36.996-82.47-82.47-82.47zM729.606 1024c-68.212 0-123.705-55.493-123.705-123.705s55.493-123.704 123.705-123.704 123.705 55.493 123.705 123.704S797.818 1024 729.606 1024z m0-206.174c-45.474 0-82.47 36.995-82.47 82.47s36.996 82.47 82.47 82.47 82.47-36.997 82.47-82.47-36.996-82.47-82.47-82.47z m-217.629-150.05c-89.718 0-174.145-32.324-237.728-91.017-64.041-59.114-99.31-137.843-99.31-221.68 0-59.5 17.664-116.352 51.341-166.006-11.781-6.093-22.355-14.248-31.012-24.06-15.879-17.997-24.624-40.803-24.624-64.217C170.644 45.218 218.857 0 278.118 0c46.747 0 86.82 28.053 101.502 67.54 42.013-16.51 87.285-25.16 132.357-25.16s90.346 8.65 132.359 25.162C659.016 28.053 699.09 0 745.836 0c59.262 0 107.475 45.218 107.475 100.796 0 23.414-8.745 46.22-24.624 64.217-8.658 9.813-19.23 17.968-31.012 24.06 33.676 49.655 51.34 106.506 51.34 166.005 0 83.838-35.27 162.565-99.31 221.681-63.583 58.693-148.01 91.017-237.728 91.017zM278.118 41.235c-36.523 0-66.239 26.719-66.239 59.561 0 27.605 21.72 52.037 51.647 58.094a20.619 20.619 0 0 1 11.86 33.272c-38.736 47.291-59.212 103.627-59.212 162.916 0 149.685 132.698 271.463 295.803 271.463s295.804-121.778 295.804-271.463c0-59.289-20.476-115.624-59.213-162.916a20.616 20.616 0 0 1 11.861-33.272c29.925-6.059 51.647-30.49 51.647-58.094 0-32.842-29.714-59.561-66.24-59.561-35.266 0-64.32 24.773-66.147 56.398a20.615 20.615 0 0 1-29.497 17.402c-87.836-42.112-188.592-42.113-276.43 0a20.617 20.617 0 0 1-29.496-17.402c-1.826-31.625-30.882-56.398-66.148-56.398z" p-id="5665"></path><path d="M729.114 811.71c-0.516 0-1.032-0.02-1.555-0.058-11.354-0.846-19.874-10.737-19.027-22.093 1.807-24.266-1.059-52.518-9.02-88.914-2.557-11.66-5.765-23.756-9.533-35.943-3.363-10.88 2.731-22.424 13.609-25.788 10.878-3.36 22.425 2.73 25.788 13.609 4.106 13.285 7.611 26.507 10.417 39.299 8.842 40.417 11.973 72.444 9.86 100.802-0.81 10.833-9.85 19.086-20.54 19.086zM511.977 949.136c-48.114 0-87.774-5.16-121.244-15.774-10.854-3.443-16.863-15.032-13.42-25.886 3.442-10.855 15.035-16.862 25.886-13.42 29.376 9.316 64.957 13.845 108.778 13.845 43.06 0 79.544-4.54 108.438-13.497 10.88-3.37 22.426 2.713 25.797 13.59 3.37 10.876-2.714 22.426-13.59 25.797-32.85 10.182-73.442 15.345-120.645 15.345z m-217.066-137.38c-10.719 0-19.767-8.29-20.544-19.15-2.011-28.137 1.095-60.116 9.775-100.639a463.04 463.04 0 0 1 10.257-39.41c3.345-10.884 14.877-16.995 25.765-13.652 10.884 3.345 16.996 14.88 13.651 25.764a422.234 422.234 0 0 0-9.348 35.912c-7.847 36.635-10.695 64.936-8.97 89.087 0.812 11.358-7.737 21.223-19.094 22.034-0.5 0.037-0.998 0.054-1.492 0.054zM511.977 573.234c-83.13 0-150.759-67.63-150.759-150.76 0-83.128 67.63-150.759 150.76-150.759 83.128 0 150.759 67.63 150.759 150.76 0 83.129-67.631 150.759-150.76 150.759z m0-260.284c-60.391 0-109.524 49.133-109.524 109.524S451.586 532 511.977 532s109.525-49.133 109.525-109.525S572.369 312.95 511.977 312.95z" p-id="5666"></path></svg>