<svg t="1623076849375" class="icon" viewBox="0 0 1024 1024" version="1.1" xmlns="http://www.w3.org/2000/svg" p-id="4208" width="100" height="100"><path d="M402.1 77.512c48.74-103.315 170.895-103.315 219.737 0l77.819 165.059c5.836 12.39 30.615 30.82 44.439 32.97l168.028 25.599c110.482 16.69 148.88 130.347 70.549 210.419L858.366 638.322c-10.65 10.854-20.581 42.186-18.124 56.93l30.002 182.569c18.43 112.018-81.096 181.748-180.316 127.07l-151.85-83.553c-11.365-6.246-40.957-6.246-52.323 0l-151.645 83.656c-99.219 54.678-198.746-15.052-180.315-127.071l30.002-182.568c2.457-14.847-7.475-46.18-18.022-56.93L41.367 511.455C-36.964 431.59 1.229 317.83 111.711 301.14l168.13-25.599c13.722-2.048 38.5-20.478 44.337-32.97L402.1 77.512z m46.384 21.912l-77.921 165.059c-13.21 27.953-52.426 57.135-82.94 61.743l-168.232 25.599c-69.218 10.444-90.516 73.825-41.47 123.896L202.33 602.689c21.912 22.424 37.066 70.14 31.947 101.062L204.275 886.32c-11.468 69.628 43.108 108.026 105.056 73.929l151.748-83.656c26.724-14.745 74.952-14.745 101.676 0l151.85 83.553c61.948 34.097 116.524-4.3 105.056-73.928L789.66 703.649c-5.12-30.923 10.137-78.638 32.049-101.062l124.203-126.559c49.047-50.173 27.75-113.555-41.674-124.101L736.21 326.329c-30.513-4.71-69.832-33.893-82.939-61.744L575.452 99.527c-30.206-64.406-96.66-64.406-126.968-0.103z" fill="#000000" p-id="4209"></path><path d="M655.831 616.307c-8.191-4.915-17.919 0.205-21.502 11.264-15.667 47.92-59.491 96.25-122.463 96.25-59.286 0-105.056-49.764-122.565-95.943-4.096-10.854-14.028-15.052-22.015-9.523-7.987 5.53-11.16 18.943-7.065 29.797 11.98 31.537 32.356 60.822 57.545 82.427 28.465 24.574 61.027 37.476 94.1 37.476 34.2 0 66.863-12.185 94.407-35.121 26.008-21.708 46.589-52.835 57.852-87.445 3.686-11.263 0-24.37-8.294-29.182M307.181 460.771a51.197 51.197 0 1 0 102.394 0 51.197 51.197 0 1 0-102.394 0zM614.362 460.771a51.197 51.197 0 1 0 102.393 0 51.197 51.197 0 1 0-102.393 0z" fill="#000000" p-id="4210"></path></svg>